<svg width="44" height="44" viewBox="0 0 44 44" fill="none" xmlns="http://www.w3.org/2000/svg">
<g clip-path="url(#clip0_1496_22947)">
<g clip-path="url(#clip1_1496_22947)">
<path d="M0 0H44V44H0V0Z" fill="#F7931A"/>
<path d="M31.377 19.4088C31.7827 16.6637 29.705 15.2019 26.8425 14.207L27.7714 10.5086L25.5078 9.94633L24.6058 13.5543L22.8018 13.1217L23.7185 9.48922L21.4574 8.927L20.5285 12.6377L19.0912 12.2979V12.2857L15.9672 11.5034L15.3658 13.9186C15.3658 13.9186 17.0378 14.3097 17.0134 14.3243C17.9276 14.559 18.0841 15.1603 18.0572 15.6321L17.0134 19.8683L17.2481 19.9466L16.9987 19.8928L15.5223 25.8157C15.4172 26.0894 15.1312 26.5074 14.4883 26.3388C14.5152 26.3779 12.8554 25.9477 12.8554 25.9477L11.731 28.5217L14.6716 29.255L16.2801 29.6706L15.339 33.4228L17.6001 33.985L18.5143 30.2719L20.333 30.7437L19.4041 34.4421L21.6652 35.0043L22.5941 31.2521C26.449 31.9854 29.353 31.697 30.5678 28.2063C31.5481 25.3952 30.5165 23.7892 28.4901 22.7161C29.9665 22.391 31.0787 21.4108 31.3647 19.4088H31.377V19.4088ZM26.2143 26.6517C25.5225 29.4628 20.7901 27.9326 19.2598 27.5659L20.5016 22.5866C22.0318 22.9777 26.9476 23.7232 26.2143 26.6394V26.6517V26.6517ZM26.9085 19.3697C26.2803 21.9192 22.3325 20.6261 21.0663 20.3108L22.1907 15.8032C23.4692 16.1161 27.5734 16.7174 26.9085 19.3721V19.3697Z" fill="white"/>
</g>
</g>
<defs>
<clipPath id="clip0_1496_22947">
<rect width="44" height="44" rx="22" fill="white"/>
</clipPath>
<clipPath id="clip1_1496_22947">
<rect width="44" height="44" fill="white"/>
</clipPath>
</defs>
</svg>
