<svg width="44" height="44" viewBox="0 0 44 44" fill="none" xmlns="http://www.w3.org/2000/svg">
<g clip-path="url(#clip0_1496_23023)">
<g clip-path="url(#clip1_1496_23023)">
<path d="M0 0H44V44H0V0Z" fill="#F0F3FA"/>
<path d="M14.031 24.3467L14.7644 18.7734L8.31104 14.2756L14.2021 16.28L15.5955 14.1534L20.6799 10.9756L31.8999 17.16L32.4621 26.5956L27.4755 33.5134L23.5399 34.1245L25.5688 30.3845V26.7911L24.1021 23.98L22.5866 23.0023L20.2644 25.3734V27.9156L18.4555 29.6023L16.1577 29.8711L15.131 30.4578L13.4688 29.92L12.7599 27.4267L14.031 25.6667V24.3467V24.3467Z" fill="white"/>
<path d="M24.3222 14.2513C23.1 14.0069 21.7555 14.0557 21.7555 14.0557C21.7555 14.0557 21.3155 16.1091 18.5777 16.6224C18.5777 16.6224 22.1955 17.8446 24.3222 14.2513ZM26.5466 29.0891L26.4488 25.6424L23.5155 22.7824L21.8533 23.0269L20.02 25.9602C20.02 25.9602 20.8755 27.0602 19.6533 28.3557C18.48 29.578 17.5511 29.8713 17.5511 29.8713L16.6955 29.4069C16.94 29.0891 17.4533 28.6002 17.8444 28.2824C18.5288 27.7202 19.1888 27.6713 19.1888 27.0602C19.2133 25.838 17.8688 26.1557 17.8688 26.1557L17.38 26.6446L17.1844 28.3557L16.1577 29.6269L16.0355 29.6024L14.3733 29.2357C14.3733 29.2357 15.4 28.698 15.5466 28.0869C15.7177 27.5246 15.2288 25.5935 15.2044 25.4713C15.2288 25.4713 15.6933 25.8869 15.9133 26.5469C16.28 25.5202 16.7688 24.5424 16.8911 24.4446L18.92 23.3691L18.2844 25.0069L18.7733 24.7624L19.8488 22.0002C19.8488 22.0002 20.9244 21.4624 21.7555 21.4624C23.2222 21.438 25.3733 19.6535 24.3955 16.4513C24.6644 16.5491 29.5044 18.9691 30.3355 23.7113C31.0444 27.818 27.1088 33.7335 25.6422 34.198C24.8111 34.4424 24.42 31.7535 26.5222 29.0646L26.5466 29.0891Z" fill="#94A6C3"/>
<path d="M19.9221 14.7402C20.4599 14.1291 20.2399 13.2002 20.2399 13.2002L18.6755 15.498C18.6755 15.498 19.2377 15.498 19.8977 14.7646L19.9221 14.7402ZM14.691 27.3046L14.8866 26.3758C14.8866 26.3758 14.1043 27.7202 14.0555 27.9158C13.9821 28.1113 14.1043 28.478 14.3977 28.4535C14.691 28.4535 15.0577 27.9891 15.0577 27.6713C15.0577 27.2557 14.691 27.3046 14.691 27.3046Z" fill="#1B314F"/>
<path d="M28.4777 12.5401C28.4777 12.5401 29.6266 12.589 30.8488 12.7356C28.7782 10.9947 26.1715 10.0193 23.4666 9.97341C20.5822 9.97341 18.651 11.1467 18.5288 11.2201L19.4333 9.77786C19.4333 9.77786 15.8155 9.43564 14.5444 13.2734C14.2022 12.4423 13.9088 11.269 13.9088 11.269C13.9088 11.269 12.0266 12.9067 12.931 15.669C10.731 14.8623 7.67548 13.7867 7.55326 13.7623C7.38215 13.7379 7.33326 13.8112 7.33326 13.8112C7.33326 13.8112 7.28437 13.8601 7.43104 13.9823C7.67548 14.2023 12.5644 17.7956 13.6399 18.4801C13.3955 19.3112 13.3955 19.7023 13.6399 20.1179C13.9577 20.6556 13.9822 20.9245 13.9333 21.3401C13.767 22.7443 13.5796 24.146 13.371 25.5445C13.2733 25.9601 12.2955 27.4512 12.3444 27.8912C12.3933 28.3312 13.0044 30.2134 13.5422 30.409C13.9333 30.5556 14.911 30.849 15.5466 30.849C15.791 30.849 15.9866 30.8001 16.0844 30.7023C16.4755 30.3601 16.5977 30.2867 16.8666 30.2867H16.9399L17.3555 30.3112C17.7466 30.3112 18.211 30.2379 18.5777 29.9201C19.0666 29.4312 19.971 28.6979 20.2399 28.4045C20.4236 28.1726 20.5575 27.9053 20.6332 27.6193C20.7089 27.3333 20.7248 27.0347 20.6799 26.7423C20.6066 26.1801 20.9244 25.6912 21.2666 25.2267L22.5133 23.589C23.3116 24.1758 23.9617 24.9412 24.4116 25.824C24.8614 26.7068 25.0987 27.6826 25.1044 28.6734C25.1044 32.2912 21.951 35.2245 18.0644 35.2245C17.4533 35.2245 16.8666 35.1512 16.3044 35.0045C18.0888 35.6401 19.5799 35.8356 20.8266 35.8356C23.4422 35.8356 24.8355 34.8823 24.8355 34.8823C24.8355 34.8823 24.3466 35.5179 23.5644 36.2267C24.8741 36.0238 26.1269 35.5492 27.2425 34.8336C28.358 34.118 29.3116 33.177 30.0421 32.0712C30.0421 32.0712 29.871 33.2201 29.651 34.0267C35.4444 29.6756 34.4666 24.249 34.4421 24.0534L35.371 25.2023C36.2999 15.6445 28.4777 12.5401 28.4777 12.5401V12.5401ZM19.5799 27.8179C19.5066 27.9401 19.091 28.2823 18.8466 28.5512C18.5533 28.7956 18.2355 29.0401 18.0155 29.2845C17.9177 29.3579 17.7466 29.4067 17.4533 29.4067H16.7688C17.111 28.9423 18.1377 27.8912 18.4799 27.6467C18.8955 27.3779 19.1155 27.0845 18.8466 26.5956C18.6022 26.1067 17.9177 26.229 17.9177 26.229C17.9177 26.229 18.3088 26.0823 18.651 26.0823C18.211 25.9601 17.6733 26.0823 17.4288 26.3267C17.1355 26.5712 17.1844 27.5001 17.0622 28.0623C16.9399 28.6734 16.5733 28.9667 15.9377 29.529C15.6199 29.8223 15.3999 29.9201 15.2044 29.9201C14.8064 29.8521 14.4142 29.754 14.031 29.6267C13.724 29.0912 13.4936 28.5152 13.3466 27.9156C13.4199 27.6712 13.6888 27.1823 13.8355 26.9134C14.1044 26.3756 14.2755 26.0823 14.3244 25.789C14.4222 25.3979 14.7155 22.9534 14.8133 21.9512C15.131 22.3423 15.5466 22.9779 15.4733 23.4179C16.1333 22.4401 15.6444 21.5356 15.4244 21.1445C15.2573 20.8641 15.1494 20.5524 15.1074 20.2287C15.0653 19.905 15.09 19.5761 15.1799 19.2623C15.3999 18.4556 16.231 16.2801 16.231 16.2801C16.231 16.2801 16.4999 16.769 16.891 16.6712C17.2822 16.5734 20.4844 11.7823 20.4844 11.7823C20.4844 11.7823 21.3399 13.689 20.4355 15.0579C19.5066 16.4267 18.6022 16.6712 18.6022 16.6712C18.6022 16.6712 19.8733 16.9156 21.0466 16.0601C21.5355 17.1845 22.0244 18.3823 22.0244 18.529C21.951 18.7001 21.0466 20.9245 20.9488 21.0712C20.7538 21.1556 20.5482 21.2132 20.3377 21.2423L19.6044 21.4867C19.4577 21.6334 18.6999 23.6867 18.3822 24.6645C17.9066 24.7836 17.4951 25.0812 17.2333 25.4956C17.3799 25.3734 17.8933 25.3001 18.2599 25.2512C18.6022 25.2512 19.5799 25.7645 19.8488 26.7667V26.8156C19.8854 27.1602 19.7988 27.5066 19.6044 27.7934L19.5799 27.8179ZM17.4044 28.0867C17.6244 27.7934 17.5999 27.2801 17.6244 27.109C17.6244 26.9623 17.6977 26.6445 17.8688 26.6201C18.0644 26.5712 18.5044 26.6201 18.5044 26.9623C18.5044 27.2556 18.1866 27.329 17.9422 27.5245L17.4044 28.0867V28.0867ZM26.6688 23.6623C26.9133 22.489 26.8644 20.9734 26.791 20.1423C30.5555 24.9334 29.3333 29.5779 25.1777 32.7556C27.3288 30.5067 28.3066 26.5712 26.6444 23.6379L26.6688 23.6623ZM25.2022 32.7801C29.1866 29.749 30.5555 24.4445 26.791 20.1423C26.3022 17.3556 24.4688 16.4756 24.4199 16.4756C24.4688 16.549 25.6666 18.2845 24.8355 20.3134C23.9799 22.3912 21.7799 22.049 21.5844 22.0734C21.3888 22.0734 20.6799 23.0023 19.7755 24.7379C19.4032 24.6259 19.0101 24.6008 18.6266 24.6645C19.0422 23.4912 19.6533 21.8534 19.7755 21.7312C19.8244 21.6579 20.1666 21.5845 20.411 21.4867C20.851 21.389 21.0466 21.3156 21.1444 21.2423L21.6333 20.069L22.4155 19.9956C22.4644 19.9467 22.9044 18.8223 22.9044 18.6756C22.9044 18.5534 21.9999 16.3045 21.6577 15.449C21.8288 15.2534 21.9755 15.0334 22.1466 14.7645C24.1958 14.9967 26.1139 15.8887 27.6119 17.3062C29.1098 18.7236 30.1063 20.5897 30.4512 22.6229C30.796 24.6562 30.4705 26.7464 29.5237 28.5785C28.5769 30.4106 27.0602 31.8852 25.2022 32.7801V32.7801Z" fill="#1B314F"/>
<path d="M19.0421 20.2402C19.4821 19.7513 19.2377 18.7735 18.431 18.6268C18.651 18.1379 18.9199 17.1602 18.9199 17.1602C18.9199 17.1602 16.5977 20.8757 16.3777 20.949C16.1577 21.0224 15.9377 20.2157 15.9377 20.2157C15.4977 21.9024 16.671 22.1224 16.8421 21.5846C17.4777 21.4379 18.6021 20.729 19.0421 20.2402V20.2402Z" fill="#1B314F"/>
<path d="M17.0134 21.1446L18.2356 19.0913C18.2356 19.0913 18.9201 19.4335 18.5779 19.9958C18.1379 20.6558 17.0134 21.1446 17.0134 21.1446Z" fill="#FFD923"/>
<path d="M31.9245 30.7022C31.5823 31.1911 31.1912 31.68 30.7267 32.12C31.6074 30.3818 32.0683 28.4614 32.0725 26.5129C32.0768 24.5644 31.6242 22.642 30.7512 20.9L31.3623 21.56C32.4797 22.7938 33.1441 24.3711 33.2463 26.0325C33.3484 27.694 32.8823 29.3408 31.9245 30.7022V30.7022ZM34.7112 23.32C33.6868 20.2725 31.64 17.673 28.9178 15.9622C26.9208 14.663 24.5774 13.9983 22.1956 14.0556H22.1467L22.489 13.9578C23.2223 13.7133 24.1267 13.5422 25.0556 13.42C27.5245 13.0778 30.0179 13.9089 31.7045 15.6933L31.7534 15.7422C33.6845 17.7956 34.6867 20.3378 34.7112 23.32V23.32ZM28.1845 11.8311C25.7793 11.2352 23.2548 11.3284 20.9001 12.1C20.798 11.8066 20.6755 11.5207 20.5334 11.2444C20.0445 11.8311 19.5556 12.5156 19.2134 12.9556C18.3334 13.5667 17.9667 14.1533 17.9667 14.1533C18.4556 12.4178 19.9712 11.0978 21.7801 10.78C23.9721 10.4721 26.2059 10.8387 28.1845 11.8311V11.8311ZM15.4001 16.28C12.6867 16.1822 13.5912 13.0289 13.6401 12.8578C13.6401 12.8578 13.8112 15.3267 15.4001 16.28ZM18.0645 10.6089C15.9623 11.8311 16.3778 14.8378 16.3778 14.8378C14.3978 11.8067 17.8934 10.6822 18.0645 10.6089V10.6089Z" fill="#D82122"/>
<path d="M14.6177 17.1112C14.7644 17.2334 14.911 17.4534 14.7399 17.7467C14.6422 17.9178 14.4955 17.8934 14.2999 17.7956C14.031 17.6489 12.3444 16.6712 10.8533 15.6689C12.5644 16.2801 14.2999 16.9401 14.5688 17.0623L14.6177 17.1112V17.1112Z" fill="white"/>
<path d="M26.889 22.0001V19.5557L29.3334 24.4446V28.1112L28.1112 30.5557L26.889 31.5334L25.6667 32.5112L28.1112 29.3334V24.4446L26.889 22.0001Z" fill="#94A6C3"/>
</g>
</g>
<defs>
<clipPath id="clip0_1496_23023">
<rect width="44" height="44" rx="22" fill="white"/>
</clipPath>
<clipPath id="clip1_1496_23023">
<rect width="44" height="44" fill="white"/>
</clipPath>
</defs>
</svg>
