<svg width="44" height="44" viewBox="0 0 44 44" fill="none" xmlns="http://www.w3.org/2000/svg">
<g clip-path="url(#clip0_1496_23004)">
<g clip-path="url(#clip1_1496_23004)">
<path d="M0 0H44V44H0V0Z" fill="#26A17B"/>
<path d="M24.4444 25.6642C24.3149 25.6642 23.6647 25.7155 22.0244 25.7155C20.7118 25.7155 19.8807 25.6764 19.5556 25.6642C14.4931 25.4393 10.6138 24.5495 10.6138 23.4764C10.6138 22.4033 14.4931 21.5037 19.5556 21.2764V24.4444C21.2496 24.5593 22.7504 24.5593 24.4444 24.4444V21.2788C29.4947 21.5037 33.374 22.4033 33.374 23.4788C33.374 24.5373 29.4947 25.4393 24.4444 25.6642ZM24.4444 20.9073V17.1111H31.7778V12.2222H12.2222V17.1111H19.5556V20.9073C13.8282 21.1713 9.42822 22.3373 9.42822 23.7159C9.42822 25.0946 13.8282 26.2582 19.5556 26.5271V34.2222H24.4444V26.5246C30.1693 26.2606 34.5718 25.0946 34.5718 23.7159C34.5718 22.3373 30.1718 21.1859 24.4444 20.9048V20.9073Z" fill="white"/>
</g>
</g>
<defs>
<clipPath id="clip0_1496_23004">
<rect width="44" height="44" rx="22" fill="white"/>
</clipPath>
<clipPath id="clip1_1496_23004">
<rect width="44" height="44" fill="white"/>
</clipPath>
</defs>
</svg>
